<?xml version="1.0" standalone="no"?><!DOCTYPE svg PUBLIC "-//W3C//DTD SVG 1.1//EN" "http://www.w3.org/Graphics/SVG/1.1/DTD/svg11.dtd"><svg t="1765118373191" class="icon" viewBox="0 0 1024 1024" version="1.1" xmlns="http://www.w3.org/2000/svg" p-id="2028" xmlns:xlink="http://www.w3.org/1999/xlink" width="200" height="200"><path d="M776.192 247.808l95.232-55.296c6.144-4.096 14.336 1.024 14.336 8.192l-1.024 416.768c0 3.072-2.048 7.168-5.12 8.192l-95.232 55.296c-6.144 4.096-14.336-1.024-14.336-8.192l1.024-416.768c0-3.072 2.048-6.144 5.12-8.192z" fill="#E8B32E" p-id="2029"></path><path d="M780.288 698.368c-4.096 0-8.192-1.024-12.288-3.072-8.192-4.096-12.288-13.312-12.288-21.504V256c0-9.216 5.12-17.408 12.288-21.504l8.192 13.312-8.192-13.312 95.232-55.296c8.192-4.096 17.408-4.096 25.6 0s12.288 13.312 12.288 21.504v417.792c0 9.216-5.12 17.408-12.288 21.504l-95.232 55.296c-5.12 2.048-9.216 3.072-13.312 3.072z m6.144-438.272l-1.024 404.48L870.4 614.4l1.024-404.48-84.992 50.176z" fill="#330867" p-id="2030"></path><path d="M612.352 36.864l263.168 155.648L768 256 507.904 99.328" fill="#F7D7FF" p-id="2031"></path><path d="M768 271.36c-3.072 0-5.12-1.024-8.192-2.048L499.712 112.64c-7.168-4.096-9.216-13.312-5.12-21.504 4.096-7.168 13.312-9.216 21.504-5.12L768 238.592l76.8-46.08L604.16 50.176c-7.168-4.096-10.24-13.312-5.12-21.504 4.096-7.168 13.312-9.216 21.504-5.12l263.168 155.648c5.12 3.072 7.168 8.192 7.168 13.312s-3.072 10.24-7.168 13.312l-107.52 63.488c-3.072 2.048-5.12 2.048-8.192 2.048z" fill="#330867" p-id="2032"></path><path d="M771.072 260.096L770.048 665.6c0 10.24-11.264 16.384-19.456 11.264l-256-146.432c-4.096-2.048-6.144-6.144-6.144-11.264l1.024-405.504c0-10.24 11.264-16.384 19.456-11.264l256 146.432c4.096 2.048 6.144 6.144 6.144 11.264z" fill="#FFE08A" p-id="2033"></path><path d="M756.736 693.248c-5.12 0-9.216-1.024-14.336-4.096L486.4 542.72c-9.216-5.12-14.336-14.336-14.336-24.576l1.024-405.504c0-10.24 5.12-19.456 14.336-24.576 9.216-5.12 19.456-5.12 28.672 0l256 146.432c9.216 5.12 14.336 14.336 14.336 24.576L785.408 665.6c0 10.24-5.12 19.456-14.336 24.576-4.096 2.048-9.216 3.072-14.336 3.072zM502.784 517.12l251.904 143.36 1.024-400.384-251.904-143.36-1.024 400.384z" fill="#330867" p-id="2034"></path><path d="M596.992 281.6l108.544-63.488c7.168-4.096 16.384 1.024 16.384 9.216l-1.024 474.112c0 4.096-2.048 7.168-5.12 9.216l-108.544 63.488c-7.168 4.096-16.384-1.024-16.384-9.216l1.024-474.112c0-4.096 2.048-7.168 5.12-9.216z" fill="#DD365E" p-id="2035"></path><path d="M602.112 791.552c-4.096 0-9.216-1.024-13.312-4.096-8.192-5.12-13.312-13.312-13.312-22.528l1.024-474.112c0-9.216 5.12-18.432 13.312-22.528L698.368 204.8c8.192-5.12 18.432-5.12 26.624 0s13.312 13.312 13.312 22.528L737.28 701.44c0 9.216-5.12 18.432-13.312 22.528l-108.544 63.488c-4.096 3.072-9.216 4.096-13.312 4.096z m5.12-497.664L606.208 757.76l100.352-58.368 1.024-463.872-100.352 58.368z" fill="#330867" p-id="2036"></path><path d="M410.624 41.984l299.008 176.128-121.856 72.704L291.84 112.64" fill="#F7D7FF" p-id="2037"></path><path d="M587.776 306.176c-3.072 0-5.12-1.024-8.192-2.048L283.648 125.952c-7.168-4.096-9.216-13.312-5.12-21.504 4.096-7.168 13.312-9.216 21.504-5.12l287.744 173.056 92.16-54.272-276.48-163.84c-7.168-4.096-9.216-13.312-5.12-21.504 4.096-7.168 13.312-9.216 21.504-5.12L717.824 204.8c5.12 3.072 7.168 8.192 7.168 13.312s-3.072 10.24-7.168 13.312l-121.856 72.704c-3.072 1.024-5.12 2.048-8.192 2.048z" fill="#330867" p-id="2038"></path><path d="M591.872 294.912l-1.024 460.8c0 11.264-12.288 18.432-22.528 12.288L277.504 602.112c-4.096-3.072-7.168-7.168-7.168-12.288l1.024-460.8c0-11.264 12.288-18.432 22.528-12.288l290.816 165.888c4.096 2.048 7.168 7.168 7.168 12.288z" fill="#FC6B79" p-id="2039"></path><path d="M575.488 785.408c-5.12 0-10.24-1.024-15.36-4.096L269.312 615.424c-9.216-5.12-15.36-15.36-15.36-26.624l1.024-460.8c0-11.264 6.144-20.48 15.36-25.6s20.48-5.12 29.696 0l290.816 165.888c9.216 5.12 15.36 15.36 15.36 25.6l-1.024 460.8c0 11.264-6.144 20.48-15.36 25.6-4.096 4.096-9.216 5.12-14.336 5.12zM285.696 129.024l-1.024 459.776 290.816 165.888 1.024-459.776-290.816-165.888z" fill="#330867" p-id="2040"></path><path d="M448.512 439.296l84.992-49.152-1.024 404.48-84.992 49.152z" fill="#99CAFF" p-id="2041"></path><path d="M518.144 416.768l-1.024 368.64-53.248 30.72 1.024-368.64 53.248-30.72m20.48-46.08c-2.048 0-3.072 0-5.12 1.024l-95.232 55.296c-3.072 2.048-5.12 5.12-5.12 8.192l-1.024 416.768c0 6.144 5.12 10.24 10.24 10.24 2.048 0 3.072 0 5.12-1.024l95.232-55.296c3.072-2.048 5.12-5.12 5.12-8.192l1.024-416.768c0-6.144-5.12-10.24-10.24-10.24z" fill="#330867" p-id="2042"></path><path d="M274.432 217.088l263.168 154.624L430.08 436.224 168.96 279.552" fill="#F7D7FF" p-id="2043"></path><path d="M430.08 451.584c-3.072 0-5.12-1.024-8.192-2.048L161.792 292.864c-7.168-4.096-9.216-13.312-5.12-21.504 4.096-7.168 13.312-9.216 21.504-5.12L430.08 417.792l76.8-46.08L266.24 230.4c-7.168-4.096-10.24-13.312-5.12-21.504 4.096-7.168 13.312-9.216 21.504-5.12l263.168 155.648c5.12 3.072 7.168 8.192 7.168 13.312s-3.072 10.24-7.168 13.312l-107.52 63.488c-3.072 1.024-6.144 2.048-8.192 2.048z" fill="#330867" p-id="2044"></path><path d="M433.152 439.296l-1.024 405.504c0 10.24-11.264 16.384-19.456 11.264l-256-146.432c-4.096-2.048-6.144-6.144-6.144-11.264l1.024-405.504c0-10.24 11.264-16.384 19.456-11.264l256 146.432c4.096 3.072 6.144 7.168 6.144 11.264z" fill="#66C1FF" p-id="2045"></path><path d="M418.816 873.472c-5.12 0-9.216-1.024-14.336-4.096l-256-146.432c-9.216-5.12-14.336-14.336-14.336-24.576l1.024-405.504c0-10.24 5.12-19.456 14.336-24.576 9.216-5.12 19.456-5.12 28.672 0l256 146.432c9.216 5.12 14.336 14.336 14.336 24.576l-1.024 405.504c0 10.24-5.12 19.456-14.336 24.576-4.096 3.072-9.216 4.096-14.336 4.096zM164.864 697.344l251.904 143.36 1.024-400.384-250.88-143.36-2.048 400.384z m252.928-258.048z" fill="#330867" p-id="2046"></path><path d="M907.264 582.656L457.728 841.728h-3.072l-327.68-190.464c-2.048-1.024-4.096 0-4.096 2.048v122.88c0 1.024 0 2.048 1.024 2.048l330.752 192.512h3.072l452.608-261.12c1.024 0 1.024-1.024 1.024-2.048v-122.88c0-2.048-3.072-3.072-4.096-2.048z" fill="#FC6B79" p-id="2047"></path><path d="M456.704 987.136c-3.072 0-6.144-1.024-9.216-2.048L116.736 792.576c-5.12-3.072-9.216-9.216-9.216-15.36v-122.88c0-6.144 3.072-12.288 9.216-15.36 5.12-3.072 12.288-3.072 18.432 0l321.536 187.392 443.392-256c5.12-3.072 12.288-3.072 18.432 0 5.12 3.072 9.216 9.216 9.216 15.36v122.88c0 6.144-3.072 12.288-9.216 15.36L465.92 985.088c-3.072 1.024-6.144 2.048-9.216 2.048zM138.24 769.024l318.464 185.344 439.296-253.952v-94.208l-430.08 248.832c-5.12 3.072-12.288 3.072-18.432 0L138.24 675.84v93.184z m0 7.168z m776.192-180.224z" fill="#330867" p-id="2048"></path><path d="M291.84 802.816c0 15.36-9.216 27.648-20.48 27.648s-20.48-12.288-20.48-27.648 9.216-27.648 20.48-27.648 20.48 12.288 20.48 27.648z" fill="#FFFFFF" p-id="2049"></path><path d="M271.36 845.824c-20.48 0-35.84-19.456-35.84-43.008 0-24.576 15.36-43.008 35.84-43.008s35.84 19.456 35.84 43.008c0 24.576-15.36 43.008-35.84 43.008z m0-56.32c-1.024 0-5.12 4.096-5.12 12.288 0 8.192 4.096 12.288 5.12 12.288 1.024 0 5.12-5.12 5.12-12.288s-4.096-11.264-5.12-12.288z" fill="#330867" p-id="2050"></path><path d="M615.424 831.488c-3.072 17.408-16.384 30.72-28.672 28.672-13.312-2.048-21.504-18.432-18.432-35.84 3.072-17.408 16.384-30.72 28.672-28.672 13.312 1.024 21.504 17.408 18.432 35.84z" fill="#FFFFFF" p-id="2051"></path><path d="M588.8 874.496H583.68c-21.504-4.096-34.816-27.648-30.72-54.272 4.096-26.624 24.576-44.032 47.104-40.96 21.504 4.096 34.816 27.648 30.72 54.272-2.048 12.288-7.168 22.528-15.36 29.696-7.168 7.168-17.408 11.264-26.624 11.264z m5.12-64.512c-3.072 0-9.216 5.12-11.264 15.36-2.048 10.24 3.072 18.432 5.12 18.432 1.024 0 3.072-1.024 5.12-2.048 3.072-3.072 5.12-8.192 6.144-13.312 3.072-10.24-1.024-17.408-5.12-18.432 1.024 0 0 0 0 0z" fill="#330867" p-id="2052"></path><path d="M848.677077 703.115196a20.48 27.648 9.59 1 0 9.212129-54.523246 20.48 27.648 9.59 1 0-9.212129 54.523246Z" fill="#FFFFFF" p-id="2053"></path><path d="M851.968 719.872h-5.12c-10.24-2.048-19.456-8.192-24.576-18.432-4.096-9.216-6.144-19.456-4.096-29.696 4.096-23.552 22.528-39.936 43.008-36.864 19.456 3.072 32.768 24.576 28.672 49.152-2.048 10.24-7.168 20.48-13.312 26.624-8.192 5.12-16.384 9.216-24.576 9.216z m4.096-56.32c-1.024 0-6.144 3.072-7.168 11.264-1.024 8.192 2.048 13.312 3.072 13.312 1.024 0 6.144-4.096 7.168-11.264 1.024-8.192-2.048-13.312-3.072-13.312z" fill="#330867" p-id="2054"></path></svg>