<svg xmlns="http://www.w3.org/2000/svg" width="410" height="404" viewBox="0 0 410 404" fill="none">
  <path d="M399.641 59.5254C408.607 70.3485 410.162 85.3855 404.107 97.7512L229.694 352.964C222.349 367.389 205.198 373.187 190.307 366.23L8.52154 276.947C-2.83361 271.596 -5.62666 256.537 2.47136 246.375L13.6347 232.165C22.1683 221.135 37.9163 218.087 49.5206 224.65L146.142 279.269L305.929 67.0595C313.274 56.4471 327.18 51.9166 339.265 55.9394L389.509 72.9038C393.888 74.2987 397.046 76.9854 399.641 59.5254Z" fill="url(#paint0_linear)" />
  <path d="M316.901 0.134602C327.173 -0.73714 337.251 2.80784 344.524 10.0044L373.165 39.4452C383.29 49.6349 384.48 65.8511 375.762 77.4028L264.53 233.703C257.493 243.444 244.437 247.454 232.902 243.185L118.4 201.803C106.433 197.472 101.708 183.415 108.682 173.231L127.497 146.287C134.37 136.294 147.541 132.77 159.945 137.546L220.067 160.725L302.275 20.2545C306.617 12.7555 311.363 6.41305 316.901 0.134602Z" fill="url(#paint1_linear)" />
  <path d="M239.553 121.957C244.672 114.651 253.689 111.342 262.033 113.88L328.198 134.209C337.197 136.92 342.995 145.721 341.998 155.097L333.615 240.32C332.517 251.245 321.607 258.788 310.909 256.32L249.119 242.761C239.402 240.646 232.19 232.348 231.2 222.469L223.92 150.833C223.048 141.881 232.126 131.231 239.553 121.957Z" fill="url(#paint2_linear)" />
  <defs>
    <linearGradient id="paint0_linear" x1="197.571" y1="33.2538" x2="79.0858" y2="278.443" gradientUnits="userSpaceOnUse">
      <stop stop-color="#41D1FF" />
      <stop offset="1" stop-color="#BD34FE" />
    </linearGradient>
    <linearGradient id="paint1_linear" x1="234.13" y1="3.68262" x2="194.712" y2="191.162" gradientUnits="userSpaceOnUse">
      <stop stop-color="#FFEA83" />
      <stop offset="0.0833333" stop-color="#FFDD35" />
      <stop offset="1" stop-color="#FFA800" />
    </linearGradient>
    <linearGradient id="paint2_linear" x1="246.317" y1="115.454" x2="209.197" y2="214.022" gradientUnits="userSpaceOnUse">
      <stop stop-color="#FFEA83" />
      <stop offset="0.0833333" stop-color="#FFDD35" />
      <stop offset="1" stop-color="#FFA800" />
    </linearGradient>
  </defs>
</svg>
